# xmcd
#
# Track frame offsets:
#	150
#	8796
#	16874
#	26718
#	36859
#	48155
#	59687
#	69343
#	78237
#	87555
#	95631
#	108093
#	116530
#
# Disc length: 1661 seconds
# Revision: 1
# Processed by: cddbd v1.5.2PL0 Copyright (c) Steve Scherf et al.
# Submitted via: dBpowerAMP V12.0
#
DISCID=9d067b0d
DTITLE=Johnny Cash - Songs Of Our Soil
DYEAR=1959
DGENRE=Country
TTITLE0=Drink To Me
TTITLE1=Five Feet High And Rising
TTITLE2=The Man On The Hill
TTITLE3=Hank And Joe And Me
TTITLE4=Clementine
TTITLE5=Don't Step On Mother's Roses
TTITLE6=The Great Speckled Bird
TTITLE7=I Want To Go Home
TTITLE8=The Caretaker
TTITLE9=Old Apache Squaw
TTITLE10=My Grandfather's Clock
TTITLE11=It Could Be You
TTITLE12=You Dreamer You (1959 Bonus Track)
EXTD=
EXTT0=
EXTT1=
EXTT2=
EXTT3=
EXTT4=
EXTT5=
EXTT6=
EXTT7=
EXTT8=
EXTT9=
EXTT10=
EXTT11=
EXTT12=
PLAYORDER=
